<?xml version="1.0" encoding="utf-8"?>
<!-- Generator: Adobe Illustrator 26.2.1, SVG Export Plug-In . SVG Version: 6.00 Build 0)  -->
<svg version="1.1"
	 id="svg5" inkscape:export-filename="/home/cujoisa/Documents/GitHub/kinotype_combination_prediction/figures/figure_3_draft.png" inkscape:export-xdpi="600" inkscape:export-ydpi="600" inkscape:version="1.1.2 (1:1.1+202202050950+0a00cf5339)" sodipodi:docname="figure_4_draft.svg" xmlns:inkscape="http://www.inkscape.org/namespaces/inkscape" xmlns:sodipodi="http://sodipodi.sourceforge.net/DTD/sodipodi-0.dtd" xmlns:svg="http://www.w3.org/2000/svg"
	 xmlns="http://www.w3.org/2000/svg" xmlns:xlink="http://www.w3.org/1999/xlink" x="0px" y="0px" viewBox="0 0 595.3 567.4"
	 style="enable-background:new 0 0 595.3 567.4;" xml:space="preserve">
<style type="text/css">
	.st0{font-family:'Helvetica';}
	.st1{font-size:22.6265px;}
</style>
<image style="overflow:visible;" width="980" height="791" xlink:href="ALMANAC_klaeger_johnson/breast_cancer_individual_combo_validation_assessment_all_kinases_forced_in_for_paper.png"  transform="matrix(0.24 0 0 0.24 198.5178 145.32)">
</image>
<image style="overflow:visible;" width="3258" height="3084" xlink:href="726FEC40B6D2C1A9.jpg"  transform="matrix(6.137683e-02 0 0 6.137683e-02 3.777504e-02 148.0947)">
</image>
<image style="overflow:visible;" width="4960" height="1211" xlink:href="../../../../Downloads/Combination paper validation schematic.png"  transform="matrix(0.12 0 0 0.12 3.777504e-02 0)">
</image>
<sodipodi:namedview  bordercolor="#cccccc" borderopacity="1" height="141mm" id="namedview7" inkscape:current-layer="layer1" inkscape:cx="421.86422" inkscape:cy="303.90218" inkscape:document-units="mm" inkscape:guide-bbox="true" inkscape:pagecheckerboard="0" inkscape:pageopacity="1" inkscape:pageshadow="0" inkscape:window-height="1113" inkscape:window-maximized="1" inkscape:window-width="2192" inkscape:window-x="2192" inkscape:window-y="27" inkscape:zoom="1.5004828" pagecolor="#ffffff" showgrid="false" showguides="false">
	</sodipodi:namedview>
<g id="layer1" inkscape:groupmode="layer" inkscape:label="Layer 1">
	<text transform="matrix(1 0 0 1 3.0117 14.9688)" class="st0 st1">a</text>
	<text transform="matrix(1 0 0 1 1.2896 164.3633)" class="st0 st1">b</text>
	<text transform="matrix(1 0 0 1 202.8558 164.748)" class="st0 st1">c</text>
</g>
<text transform="matrix(1 0 0 1 442.3609 165.0874)" class="st0 st1">d</text>
<image style="overflow:visible;" width="673" height="791" xlink:href="ALMANAC_klaeger_johnson/breast_cancer_individual_cell_line_validation_assessment_all_kinases_forced_in.png"  transform="matrix(0.24 0 0 0.24 433.7178 145.32)">
</image>
<image style="overflow:visible;" width="1062" height="944" xlink:href="ALMANAC_klaeger_johnson/synergy_prediction_accuracy_by_metric_type.png"  transform="matrix(0.24 0 0 0.24 0 337.3809)">
</image>
<image style="overflow:visible;" width="1417" height="944" xlink:href="ALMANAC_klaeger_johnson/tram_omi_predicted_synergy_sensitivity.png"  transform="matrix(0.24 0 0 0.24 254.88 331.643)">
</image>
<text transform="matrix(1 0 0 1 3.9165 354.8606)" class="st0 st1">e</text>
<text transform="matrix(1 0 0 1 260.8083 354.8606)" class="st0 st1">f</text>
</svg>
