<?xml version="1.0" encoding="utf-8"?>
<!-- Generator: Adobe Illustrator 26.2.1, SVG Export Plug-In . SVG Version: 6.00 Build 0)  -->
<svg version="1.1"
	 id="svg5" inkscape:export-filename="/home/cujoisa/Documents/GitHub/kinotype_combination_prediction/figures/figure_1_draft.png" inkscape:export-xdpi="600" inkscape:export-ydpi="600" inkscape:version="1.1.2 (1:1.1+202202050950+0a00cf5339)" sodipodi:docname="figure_1_draft.svg" xmlns:inkscape="http://www.inkscape.org/namespaces/inkscape" xmlns:sodipodi="http://sodipodi.sourceforge.net/DTD/sodipodi-0.dtd" xmlns:svg="http://www.w3.org/2000/svg"
	 xmlns="http://www.w3.org/2000/svg" xmlns:xlink="http://www.w3.org/1999/xlink" x="0px" y="0px" viewBox="0 0 595.3 460.9"
	 style="enable-background:new 0 0 595.3 460.9;" xml:space="preserve">
<style type="text/css">
	.st0{font-family:'Helvetica';}
	.st1{font-size:22.6265px;}
</style>
<image style="overflow:visible;" width="4960" height="1061" xlink:href="../../../../Downloads/Combination paper schematic.png"  transform="matrix(0.12 0 0 0.12 3.810015e-02 7.8796)">
</image>
<sodipodi:namedview  bordercolor="#cccccc" borderopacity="1" height="150mm" id="namedview7" inkscape:current-layer="layer1" inkscape:cx="315.23187" inkscape:cy="304.90186" inkscape:document-units="mm" inkscape:guide-bbox="true" inkscape:pagecheckerboard="0" inkscape:pageopacity="1" inkscape:pageshadow="0" inkscape:window-height="1196" inkscape:window-maximized="1" inkscape:window-width="2192" inkscape:window-x="0" inkscape:window-y="0" inkscape:zoom="1.5004828" pagecolor="#ffffff" showgrid="false" showguides="false">
	</sodipodi:namedview>
<text transform="matrix(1 0 0 1 1.3277 16.0997)" class="st0 st1">a</text>
<text transform="matrix(1 0 0 1 3.789878e-02 144.1282)" class="st0 st1">b</text>
<text transform="matrix(1 0 0 1 1.3272 266.4198)" class="st0 st1">c</text>
<text transform="matrix(1 0 0 1 200.0339 266.7592)" class="st0 st1">d</text>
<image style="overflow:visible;" width="2480" height="472" xlink:href="combined_inhibition_state_visual.png"  transform="matrix(0.24 0 0 0.24 3.777504e-02 135.1996)">
</image>
<image style="overflow:visible;" width="826" height="826" xlink:href="ALMANAC_klaeger_johnson/number_of_cell_lines_per_panel.png"  transform="matrix(0.24 0 0 0.24 1.7939 258.5504)">
</image>
<image style="overflow:visible;" width="826" height="826" xlink:href="ALMANAC_klaeger_johnson/combinations_tested_per_cell_line.png"  transform="matrix(0.24 0 0 0.24 200.6448 262.6838)">
</image>
<text transform="matrix(1 0 0 1 398.8851 267.1894)" class="st0 st1">e</text>
<image style="overflow:visible;" width="826" height="826" xlink:href="ALMANAC_klaeger_johnson/cell_viability_EDA.png"  transform="matrix(0.249 0 0 0.2522 389.5606 248.4796)">
</image>
</svg>
